<?xml version="1.0" encoding="UTF-8" standalone="no"?>
<svg
   xmlns:dc="http://purl.org/dc/elements/1.1/"
   xmlns:cc="http://creativecommons.org/ns#"
   xmlns:rdf="http://www.w3.org/1999/02/22-rdf-syntax-ns#"
   xmlns:svg="http://www.w3.org/2000/svg"
   xmlns="http://www.w3.org/2000/svg"
   xmlns:sodipodi="http://sodipodi.sourceforge.net/DTD/sodipodi-0.dtd"
   xmlns:inkscape="http://www.inkscape.org/namespaces/inkscape"
   width="241.88977"
   height="241.88977"
   viewBox="0 0 64 64"
   version="1.1"
   id="svg12987"
   sodipodi:docname="Extension.svg"
   inkscape:version="1.0.2 (e86c870879, 2021-01-15)"
   shape-rendering="crispEdges">
  <sodipodi:namedview
     pagecolor="#ffffff"
     bordercolor="#666666"
     borderopacity="1"
     objecttolerance="10"
     gridtolerance="10"
     guidetolerance="10"
     inkscape:pageopacity="0"
     inkscape:pageshadow="2"
     inkscape:window-width="1920"
     inkscape:window-height="1176"
     id="namedview20"
     showgrid="false"
     inkscape:zoom="2.3181455"
     inkscape:cx="110.45087"
     inkscape:cy="108.91493"
     inkscape:window-x="1920"
     inkscape:window-y="0"
     inkscape:window-maximized="1"
     inkscape:current-layer="svg12987"
     inkscape:showpageshadow="true"
     showborder="true"
     scale-x="1"
     units="px" />
  <defs
     id="defs12981">
    <marker
       style="overflow:visible"
       id="marker2363"
       refX="0"
       refY="0"
       orient="auto">
      <path
         transform="matrix(-0.8,0,0,-0.8,-10,0)"
         style="fill:#2400f6;fill-opacity:1;fill-rule:evenodd;stroke:#2400f6;stroke-width:1pt;stroke-opacity:1"
         d="M 0,0 5,-5 -12.5,0 5,5 Z"
         id="path2361" />
    </marker>
    <marker
       style="overflow:visible"
       id="Arrow1Lstart"
       refX="0"
       refY="0"
       orient="auto">
      <path
         transform="matrix(0.8,0,0,0.8,10,0)"
         style="fill:#2400f6;fill-opacity:1;fill-rule:evenodd;stroke:#2400f6;stroke-width:1pt;stroke-opacity:1"
         d="M 0,0 5,-5 -12.5,0 5,5 Z"
         id="path2041" />
    </marker>
    <marker
       style="overflow:visible"
       id="Arrow1Lend"
       refX="0"
       refY="0"
       orient="auto">
      <path
         transform="matrix(-0.8,0,0,-0.8,-10,0)"
         style="fill:#2400f6;fill-opacity:1;fill-rule:evenodd;stroke:#2400f6;stroke-width:1pt;stroke-opacity:1"
         d="M 0,0 5,-5 -12.5,0 5,5 Z"
         id="path2044" />
    </marker>
  </defs>
  <metadata
     id="metadata12984">
    <rdf:RDF>
      <cc:Work
         rdf:about="">
        <dc:format>image/svg+xml</dc:format>
        <dc:type
           rdf:resource="http://purl.org/dc/dcmitype/StillImage" />
        <dc:title></dc:title>
      </cc:Work>
    </rdf:RDF>
  </metadata>
  <g
     id="layer1"
     transform="translate(-50.52964,-80.983661)"
     style="fill:#00cfb7;fill-opacity:1">
    <rect
       style="fill:#00cfb7;fill-opacity:1;stroke:none;stroke-width:0.405304;stroke-linejoin:miter;stroke-miterlimit:4;stroke-dasharray:none;stroke-opacity:1"
       id="rect17482"
       width="64"
       height="64"
       x="50.648808"
       y="81.053558" />
    <g
       id="g20"
       transform="matrix(0.06792377,0,0,0.06792377,53.148405,106.30638)"
       style="fill:#00cfb7;fill-opacity:1">
      <path
         d="m 567.47073,114.5826 c 0,-69.365949 -56.35712,-125.668023 -125.72307,-125.668023 -69.41708,0 -125.60904,56.298141 -125.60904,125.668023 0,69.36988 56.19196,125.72308 125.60904,125.72308 69.36595,0 125.72307,-56.35713 125.72307,-125.72308 M 441.74766,-220.0091 c -184.66388,0 -334.56417,149.876701 -334.61923,334.51305 h 99.65039 c 0.0236,-129.639882 105.24244,-234.94132 234.96884,-234.94132 129.77357,0 235.07502,105.325033 235.07502,235.0239 0,129.71459 -105.24245,234.99242 -234.96885,235.01602 v 99.65038 c 184.74253,-0.0511 334.51305,-149.98287 334.51305,-334.67033 0,-184.687475 -149.82558,-334.5917 -334.61922,-334.5917"
         id="path2"
         style="fill:#00cfb7;fill-opacity:1;stroke-width:3.93253" />
    </g>
  </g>
  <g
     class="icon-color"
     id="g4"
     transform="matrix(3.4252927,0,0,3.4252927,4.7476481,5.2574869)"
     style="fill:#ffffff;fill-opacity:1">
    <path
       d="M 13.3,4.8 12.6,4.1 C 12.4,3.9 12.1,3.9 11.9,4.1 L 6.5,9.5 4,6.9 C 3.8,6.7 3.5,6.7 3.3,6.9 L 2.7,7.6 c -0.2,0.2 -0.2,0.5 0,0.7 l 3.6,3.6 c 0.2,0.2 0.5,0.2 0.7,0 L 13.4,5.5 C 13.5,5.3 13.5,5 13.3,4.8 Z"
       id="path2-7"
       style="fill:#ffffff;fill-opacity:1" />
  </g>
</svg>
