<svg xmlns="http://www.w3.org/2000/svg" xmlns:xlink="http://www.w3.org/1999/xlink" width="32" height="32" viewBox="0 0 32 32">
  <defs>
    <clipPath id="clip-path">
      <rect id="Rectangle_28" data-name="Rectangle 28" width="20" height="20" transform="translate(0 0.389)" fill="none"/>
    </clipPath>
  </defs>
  <g id="Groupe_93" data-name="Groupe 93" transform="translate(-423 -2678)">
    <rect id="Rectangle_52" data-name="Rectangle 52" width="32" height="32" transform="translate(423 2678)" fill="#264a80"/>
    <g id="Groupe_84" data-name="Groupe 84" transform="translate(430.243 2685.467)">
      <g id="Groupe_52" data-name="Groupe 52" transform="translate(-1.243 -1.356)" clip-path="url(#clip-path)">
        <path id="Tracé_25" data-name="Tracé 25" d="M9.759,11.312A3.776,3.776,0,0,1,7.08,10.2a.515.515,0,0,1,.728-.727,2.76,2.76,0,0,0,3.9,0l3.74-3.74a2.759,2.759,0,0,0-3.9-3.9L8.393,4.991a.514.514,0,0,1-.727-.727L10.82,1.108a3.787,3.787,0,0,1,5.356,5.356L12.437,10.2a3.78,3.78,0,0,1-2.678,1.108" transform="translate(1.303 1.061)" fill="#fff" stroke="#fff" stroke-width="0.25"/>
        <path id="Tracé_26" data-name="Tracé 26" d="M3.785,17.312a3.786,3.786,0,0,1-2.678-6.464l3.74-3.74a3.791,3.791,0,0,1,5.356,0,.514.514,0,1,1-.727.727,2.761,2.761,0,0,0-3.9,0l-3.739,3.74a2.758,2.758,0,0,0,3.9,3.9l3.157-3.156a.514.514,0,0,1,.727.727L6.464,16.2a3.78,3.78,0,0,1-2.678,1.108" transform="translate(1.105 1.233)" fill="#fff" stroke="#fff" stroke-width="0.25"/>
      </g>
    </g>
  </g>
</svg>
