<?xml version="1.0" encoding="UTF-8" standalone="no"?>
<svg
        xmlns:dc="http://purl.org/dc/elements/1.1/"
        xmlns:cc="http://creativecommons.org/ns#"
        xmlns:rdf="http://www.w3.org/1999/02/22-rdf-syntax-ns#"
        xmlns:svg="http://www.w3.org/2000/svg"
        xmlns="http://www.w3.org/2000/svg"
        viewBox="0 0 16 16"
        version="1.1"
        id="svg62">
    <metadata
            id="metadata68">
        <rdf:RDF>
            <cc:Work
                    rdf:about="">
                <dc:format>image/svg+xml</dc:format>
                <dc:type
                        rdf:resource="http://purl.org/dc/dcmitype/StillImage" />
                <dc:title></dc:title>
            </cc:Work>
        </rdf:RDF>
    </metadata>
    <defs
            id="defs66" />
    <g
            style="fill:#585858;fill-opacity:1"
            class="icon-color"
            id="g36"
            transform="matrix(0.81465164,-0.42132718,0.4289619,0.81081752,1.6894035,5.4837037)">
        <path
                style="fill:#585858;fill-opacity:1"
                d="M 13.7,3.8 12.3,2.4 c -0.8,-0.8 -2,-0.8 -2.8,0 L 5.9,5.9 c -0.8,0.8 -0.8,2 0,2.8 L 7.1,9.9 8,9.1 6.9,8 C 6.5,7.6 6.5,7 6.9,6.6 l 3.2,-3.2 c 0.4,-0.4 1,-0.4 1.4,0 l 1.1,1.1 c 0.4,0.4 0.4,1 0,1.4 l -1.3,1.3 c 0.2,0.4 0.4,0.9 0.4,1.4 l 2,-2 c 0.7,-0.8 0.7,-2.1 0,-2.8 z"
                id="path32" />
        <path
                style="fill:#585858;fill-opacity:1"
                d="M 8.9,6.1 8,6.9 9.1,8 c 0.4,0.4 0.4,1 0,1.4 L 5.9,12.6 C 5.5,13 4.9,13 4.5,12.6 L 3.4,11.5 C 3,11.1 3,10.5 3.4,10.1 L 4.7,8.8 C 4.5,8.4 4.3,7.9 4.3,7.4 l -2,2 c -0.8,0.8 -0.8,2 0,2.8 l 1.4,1.4 c 0.8,0.8 2,0.8 2.8,0 L 10,10.1 c 0.8,-0.8 0.8,-2 0,-2.8 z"
                id="path34" />
    </g>
    <g
            class="icon-color"
            id="g60"
            transform="matrix(0.83333333,0,0,0.83333333,-1.3832763,0.92204651)">
        <path
                d="M 8,2 C 4.7,2 2,4.7 2,8 c 0,3.3 2.7,6 6,6 3.3,0 6,-2.7 6,-6 C 14,4.7 11.3,2 8,2 Z m 4.5,6 c 0,0.9 -0.3,1.8 -0.8,2.5 L 5.5,4.3 C 6.2,3.8 7.1,3.5 8,3.5 c 2.5,0 4.5,2 4.5,4.5 z m -9,0 C 3.5,7.1 3.8,6.2 4.3,5.5 l 6.2,6.2 C 9.8,12.2 8.9,12.5 8,12.5 5.5,12.5 3.5,10.5 3.5,8 Z"
                id="path58" />
    </g>
</svg>
